<svg xmlns="http://www.w3.org/2000/svg" viewBox="0 0 510 215"><path fill="#ff2600" d="M66.44 92.18c0 7.68 2.58 11.52 7.8 11.52.84 0 2.04-.12 3.66-.36 1.68-.3 2.88-.42 3.72-.42 1.32 0 2.46.48 3.42 1.5.96.96 1.44 2.1 1.44 3.42 0 3.54-2.28 5.34-6.84 5.34h-.96c-.48-.06-.84-.12-1.08-.12l-7.5-1.08a65.8 65.8 0 0 0-9.6-.66c-3.9 0-7.32.24-10.32.66l-7.62 1.08c-.3 0-.66.06-1.08.12H40.4c-4.5 0-6.72-1.8-6.72-5.34 0-3.3 1.62-4.92 4.92-4.92.78 0 2.04.12 3.66.42 1.62.24 2.82.36 3.66.36 5.1 0 7.68-3.84 7.68-11.52V81.5l.12-13.5V54.98l-.12-24.96c0-7.26-3.78-10.86-11.22-10.86h-4.74c-7.32 0-11.04 3.6-11.04 10.74 0 2.52.06 4.26.18 5.16l.6 5.7c.12.9.18 2.16.18 3.84 0 6.42-2.04 9.66-6 9.66-3.78 0-5.64-2.34-5.64-7.08 0-1.32.06-3.6.3-6.9.3-4.86.48-7.98.48-9.3 0-2.58-.12-5.22-.3-7.98-.42-5.4-.66-7.74-.66-6.9 0-4.26 1.98-6.42 5.82-6.42 1.44 0 4.74.12 9.96.42.54 0 4.68.12 12.54.3l17.52.36c1.98 0 7.44-.12 16.38-.36 1.92 0 5.22-.12 9.9-.42 4.2-.3 7.5-.48 9.84-.48 5.1 0 7.62 2.1 7.62 6.3v.3c0 1.02-.06 2.94-.3 5.7l-.9 8.82v1.74c0 1.5.12 3.9.42 7.2.42 4.26.66 6.9.66 7.92 0 4.2-1.98 6.3-6 6.3-3.84 0-5.82-2.58-5.82-7.68 0-1.8.18-4.56.48-8.16.3-3.66.48-6.36.48-8.22 0-7.02-4.08-10.56-12.12-10.56h-4.26c-3.78 0-6.54.78-8.16 2.4-1.62 1.56-2.52 4.2-2.76 7.86l-.42 10.74-.18 52.02zm0 0zM182.6 67.4c0 3.9-.24 6.24-.78 7.14-.48.84-1.98 1.26-4.44 1.26h-48.66c-1.32 0-2.22.18-2.64.6-.42.3-.6.9-.6 1.74 0 7.62 2.28 14.04 6.9 19.14a22.17 22.17 0 0 0 17.16 7.62c4.5 0 8.58-1.2 12.3-3.66 3.72-2.46 6.18-5.58 7.32-9.36l1.32-4.38c.72-2.46 2.4-3.72 5.1-3.72 3.78 0 5.64 1.92 5.64 5.82 0 6.66-3.36 12.54-10.14 17.7a36.6 36.6 0 0 1-22.92 7.74c-10.74 0-19.26-3.6-25.62-10.8-6.3-7.2-9.48-16.86-9.48-29.04 0-12.42 3.36-22.56 10.14-30.3 6.72-7.74 15.48-11.64 26.34-11.64 9.6 0 17.52 3.24 23.7 9.66 6.24 6.42 9.36 14.58 9.36 24.48zm-55.62-3.96c0 1.44 1.14 2.16 3.42 2.16H167c2.1 0 3.18-.72 3.18-2.16 0-5.4-2.04-10.14-6.12-14.1-4.08-4.02-8.88-6-14.4-6-5.7 0-10.92 2.1-15.6 6.24-4.68 4.14-7.08 8.76-7.08 13.86zm0 0zm90.06-23.16v4.14c5.34-7.44 12.42-11.16 21.3-11.16 7.14 0 12.96 2.04 17.4 6.06 4.44 4.02 6.66 9.18 6.66 15.54 0 4.5-1.14 8.16-3.36 10.92a10.84 10.84 0 0 1-8.88 4.2c-2.34 0-4.38-.66-6-2.1s-2.46-3.18-2.46-5.22c0-1.62.6-3.12 1.86-4.38a5.75 5.75 0 0 1 4.26-1.92c.3 0 1.02.18 2.04.48.6-1.2.9-2.34.9-3.36 0-3-1.32-5.46-3.9-7.5-2.64-2.04-5.88-3.06-9.72-3.06-7.98 0-13.26 3.54-15.96 10.68-1.62 4.44-2.4 11.04-2.4 19.92v10.14c0 6.84 0 10.62.12 11.46.54 5.82 2.1 8.76 4.74 8.76 1.32 0 2.7-.24 4.14-.66 1.14-.3 2.1-.42 2.94-.42 3.24 0 4.86 1.62 4.86 4.86 0 3.6-2.1 5.4-6.24 5.4h-.66c-1.5 0-3.84-.18-6.96-.54-3.12-.36-5.4-.54-6.96-.54-4.08 0-7.32.06-9.66.3l-8.58.78c-4.14 0-6.24-1.8-6.24-5.4 0-3.12 1.92-4.74 5.82-4.74 1.02 0 1.8.06 2.28.18l2.28.42c1.02.24 1.74.36 2.16.36 2.52 0 3.9-2.4 4.14-7.08l.3-7.8-.48-34.74c-.3-6.06-1.8-9.06-4.56-9.06-.84 0-1.98.18-3.36.48-1.44.3-2.58.42-3.36.42-3.42 0-5.1-1.62-5.1-4.86 0-3.6 2.22-5.4 6.6-5.4 1.02 0 2.58.18 4.62.42s3.54.36 4.56.36c.84 0 2.16-.12 3.96-.3.84-.18 1.8-.3 2.94-.3 2.64 0 3.96 1.44 3.96 4.26zm0 0zm84.42-7.02c6.84 0 12.54 1.8 17.16 5.34V38c0-3.78 1.62-5.64 4.86-5.64 3.42 0 5.1 1.62 5.1 4.86 0 .6-.12 2.16-.36 4.62-.36 2.04-.6 4.08-.6 6.12 0 1.2.18 3 .54 5.34.36 2.34.54 4.14.54 5.4 0 3.84-1.68 5.82-5.04 5.82-3.24 0-4.98-1.68-5.04-4.92l-.18-5.04c-.12-3.06-1.86-5.7-5.28-7.92a22.07 22.07 0 0 0-12-3.3c-4.74 0-8.64 1.2-11.82 3.6-3.18 2.4-4.74 5.4-4.74 9 0 6.54 4.5 10.38 13.5 11.58l8.88 1.26c17.34 2.34 26.04 9.54 26.04 21.6 0 7.32-2.82 13.32-8.46 17.82-5.58 4.56-12.96 6.84-22.02 6.84-8.46 0-15.84-2.4-22.08-7.2.12 1.02.18 1.98.18 2.88 0 3.72-1.74 5.52-5.22 5.52-3.78 0-5.7-2.1-5.7-6.24 0 .72.36-1.98.96-7.98.18-1.44.3-2.88.3-4.32 0-2.4-.24-4.74-.6-6.84a28.79 28.79 0 0 1-.66-5.1c0-3.54 1.68-5.34 4.92-5.34 2.16 0 3.48.54 4.08 1.56.54 1.02.9 3.72.96 8.1.12 4.38 2.4 7.98 6.9 10.74 4.5 2.7 10.26 4.08 17.16 4.08 4.98 0 9.12-1.26 12.42-3.78 3.24-2.58 4.92-5.82 4.92-9.66 0-6.96-5.52-10.98-16.56-12.12-10.5-1.14-18.54-3.18-24.06-6.18-5.52-3-8.28-8.28-8.28-15.84 0-7.14 2.7-12.96 8.16-17.4 5.4-4.44 12.42-6.66 21.12-6.66zm0 0zM414.02 67.4c0 3.9-.24 6.24-.78 7.14-.48.84-1.98 1.26-4.44 1.26h-48.66c-1.38 0-2.22.18-2.64.6-.42.3-.6.9-.6 1.74 0 7.62 2.28 14.04 6.9 19.14a22.08 22.08 0 0 0 17.16 7.62c4.44 0 8.58-1.2 12.3-3.66 3.72-2.46 6.12-5.58 7.26-9.36l1.38-4.38c.72-2.46 2.4-3.72 5.04-3.72 3.78 0 5.7 1.92 5.7 5.82 0 6.66-3.36 12.54-10.14 17.7a36.72 36.72 0 0 1-22.92 7.74c-10.74 0-19.26-3.6-25.62-10.8-6.3-7.2-9.48-16.86-9.48-29.04 0-12.42 3.36-22.56 10.08-30.3 6.78-7.74 15.54-11.64 26.4-11.64 9.6 0 17.46 3.24 23.7 9.66 6.24 6.42 9.36 14.58 9.36 24.48zm-55.62-3.96c0 1.44 1.14 2.16 3.42 2.16h36.6c2.1 0 3.18-.72 3.18-2.16 0-5.4-2.04-10.14-6.12-14.1-4.08-4.02-8.88-6-14.4-6-5.7 0-10.92 2.1-15.6 6.24-4.74 4.14-7.08 8.76-7.08 13.86zm0 0zm90.06-23.16v4.14c5.34-7.44 12.42-11.16 21.3-11.16 7.14 0 12.96 2.04 17.4 6.06 4.44 4.02 6.66 9.18 6.66 15.54 0 4.5-1.14 8.16-3.42 10.92a10.64 10.64 0 0 1-8.82 4.2c-2.4 0-4.38-.66-6-2.1s-2.46-3.18-2.46-5.22c0-1.62.6-3.12 1.86-4.38a5.75 5.75 0 0 1 4.26-1.92c.3 0 .96.18 2.04.48.6-1.2.9-2.34.9-3.36 0-3-1.32-5.46-3.9-7.5-2.64-2.04-5.88-3.06-9.72-3.06-7.98 0-13.32 3.54-15.96 10.68-1.62 4.44-2.46 11.04-2.46 19.92v10.14c0 6.84.06 10.62.18 11.46.48 5.82 2.1 8.76 4.74 8.76 1.32 0 2.7-.24 4.14-.66 1.14-.3 2.1-.42 2.94-.42 3.24 0 4.86 1.62 4.86 4.86 0 3.6-2.1 5.4-6.24 5.4h-.66c-1.5 0-3.84-.18-6.96-.54a67.67 67.67 0 0 0-6.96-.54c-4.08 0-7.32.06-9.66.3l-8.58.78c-4.2 0-6.3-1.8-6.3-5.4 0-3.12 1.98-4.74 5.88-4.74 1.02 0 1.74.06 2.28.18l2.28.42c1.02.24 1.74.36 2.16.36 2.52 0 3.9-2.4 4.14-7.08l.3-7.8-.48-34.74c-.3-6.06-1.8-9.06-4.56-9.06-.84 0-1.98.18-3.42.48-1.38.3-2.52.42-3.36.42-3.36 0-5.04-1.62-5.04-4.86 0-3.6 2.22-5.4 6.6-5.4 1.02 0 2.52.18 4.56.42 2.04.24 3.6.36 4.62.36.84 0 2.16-.12 3.96-.3.84-.18 1.8-.3 2.94-.3 2.64 0 3.96 1.44 3.96 4.26zm0 0z"/><g fill="#ff2600"><path d="M40.28 154.22a16.68 16.68 0 0 0-8.52-5.1 16.87 16.87 0 0 0-17.82 6.72 17.03 17.03 0 0 0-2.94 9.54c0 3.36 1.02 6.72 2.94 9.54a16.88 16.88 0 0 0 17.82 6.72 16.8 16.8 0 0 0 8.52-5.16c2.7-3 4.26-7.02 4.26-11.1s-1.56-8.1-4.26-11.16z"/><path d="M40.28 154.22h160.86v-31.38l19.02 19.02v47.04l-19.02 19.02v-31.44H40.28zm429 0a16.45 16.45 0 0 1 8.52-5.1 16.88 16.88 0 0 1 17.82 6.72 17.03 17.03 0 0 1 2.94 9.54c0 3.36-1.02 6.72-2.94 9.54a16.9 16.9 0 0 1-17.82 6.72c-3.3-.78-6.3-2.64-8.52-5.16-2.7-3-4.26-7.02-4.26-11.1s1.56-8.1 4.26-11.16z"/><path d="M469.28 154.22H308.42v-31.38l-19.02 19.02v47.04l19.02 19.02v-31.44h160.86z"/></g><path fill="#ff8100" d="M233.18 186.92c0 1.02-.42 1.92-1.26 2.7a6.25 6.25 0 0 0 3.84 1.44c2.58 0 4.44-.78 5.58-2.34 1.08-1.5 1.68-3.9 1.68-7.26l.06-21.78c0-4.02-.12-6.54-.36-7.5s-.84-1.44-1.86-1.44c-.54 0-1.14.12-1.92.3-.42.18-.84.24-1.26.24-1.5 0-2.22-.78-2.22-2.22 0-1.56.96-2.28 2.88-2.28.72 0 1.32 0 1.8.06 1.5.12 2.58.18 3.18.18.36 0 .9 0 1.68-.18.78-.06 1.38-.18 1.74-.18 1.32 0 1.98.78 1.98 2.22 0 .24 0 .72-.06 1.44-.06.78-.06 1.44-.06 1.98 0 .72-.12 2.4-.18 4.98-.12 2.94-.12 5.16-.12 6.72v15.6c0 2.76-.18 4.86-.36 6.18a12 12 0 0 1-2.52 5.52c-2.22 2.7-5.28 4.02-9.24 4.02-2.76 0-5.1-.66-6.96-2.04-1.8-1.38-2.76-3.12-2.76-5.22 0-1.14.36-2.1 1.02-2.88a3.32 3.32 0 0 1 2.52-1.14c.84 0 1.62.3 2.22.9.66.54.96 1.2.96 1.98zm14.4-44.94a4 4 0 0 1-2.76 1.08 3.9 3.9 0 0 1-2.76-1.08c-.78-.78-1.14-1.68-1.14-2.76s.36-1.98 1.14-2.7a3.96 3.96 0 0 1 2.76-1.14c1.02 0 1.98.42 2.76 1.2a3.46 3.46 0 0 1 1.14 2.64c0 1.08-.36 1.98-1.14 2.76zm0 0zm18.24 3.54c3.12 0 5.7.78 7.74 2.4v-.24c0-1.74.72-2.58 2.22-2.58s2.28.72 2.28 2.22c0 .24-.06.96-.12 2.1-.24.9-.3 1.8-.3 2.76 0 .54.06 1.32.24 2.4.18 1.08.24 1.86.24 2.4 0 1.8-.78 2.64-2.28 2.64s-2.22-.72-2.28-2.22l-.06-2.28c-.06-1.38-.84-2.52-2.4-3.54a9.49 9.49 0 0 0-5.4-1.5c-2.16 0-3.9.54-5.34 1.62a4.94 4.94 0 0 0-2.16 4.08c0 2.94 2.04 4.68 6.12 5.22l3.96.6c7.86 1.02 11.82 4.26 11.82 9.72 0 3.36-1.32 6-3.84 8.1-2.52 2.04-5.88 3.06-9.96 3.06-3.84 0-7.14-1.08-9.96-3.3.06.48.06.96.06 1.32 0 1.68-.78 2.52-2.34 2.52-1.68 0-2.58-.96-2.58-2.88 0 .36.18-.84.42-3.6.12-.6.12-1.26.12-1.86 0-1.14-.06-2.16-.24-3.12a13.8 13.8 0 0 1-.3-2.34c0-1.56.78-2.4 2.22-2.4.96 0 1.56.24 1.8.72.24.42.42 1.68.48 3.66.06 1.98 1.08 3.6 3.12 4.8 2.04 1.26 4.62 1.92 7.74 1.92 2.28 0 4.14-.6 5.58-1.74a5.35 5.35 0 0 0 2.28-4.38c0-3.12-2.52-4.98-7.5-5.46-4.74-.54-8.34-1.44-10.86-2.76-2.52-1.38-3.78-3.78-3.78-7.2a9.65 9.65 0 0 1 3.72-7.86c2.46-2.04 5.64-3 9.54-3zm0 0z"/></svg>